# xmcd
#
# Track frame offsets: 
#        150
#        18952
#        36355
#        55225
#        77010
#        90752
#        109310
#        137315
#        154500
#        177065
#
# Disc length: 2575 seconds
#
# Revision: 2
# Processed by: cddbd v1.5.2PL0 Copyright (c) Steve Scherf et al.
# Submitted via: ExactAudioCopy v0.95b4
#
DISCID=680a0d0a
DTITLE=Special Aka, The  - In The Studio
DYEAR=1984
DGENRE=Pop
TTITLE0=Bright Lights
TTITLE1=The Lonely Crowd
TTITLE2=Housebound
TTITLE3=What I Like Most About You Is Your Girlfriend
TTITLE4=Night On The Tiles
TTITLE5=Nelson Mandela
TTITLE6=War Crimes
TTITLE7=Racist Friend
TTITLE8=Alcohol
TTITLE9=Break Down The Door
EXTD=
EXTT0=
EXTT1=
EXTT2=
EXTT3=
EXTT4=
EXTT5=
EXTT6=
EXTT7=
EXTT8=
EXTT9=
PLAYORDER=
